<?xml version="1.0" standalone="no"?><svg xmlns="http://www.w3.org/2000/svg" viewBox="0 0 1440 320"><path fill="#f78783" fill-opacity="1" d="M0,128L24,154.7C48,181,96,235,144,266.7C192,299,240,309,288,261.3C336,213,384,107,432,90.7C480,75,528,149,576,154.7C624,160,672,96,720,69.3C768,43,816,53,864,85.3C912,117,960,171,1008,160C1056,149,1104,75,1152,42.7C1200,11,1248,21,1296,42.7C1344,64,1392,96,1416,112L1440,128L1440,320L1416,320C1392,320,1344,320,1296,320C1248,320,1200,320,1152,320C1104,320,1056,320,1008,320C960,320,912,320,864,320C816,320,768,320,720,320C672,320,624,320,576,320C528,320,480,320,432,320C384,320,336,320,288,320C240,320,192,320,144,320C96,320,48,320,24,320L0,320Z"></path></svg>